PathFileType	4	(X/Y/Z)	C:/Users/beibeiliu/ov580/test_trc/User3\sequence.34_training_dense_left.trc
DataRate	CameraRate	NumFrames	NumMarkers	Units	OrigDataRate	OrigDataStartFrame	OrigNumFrames
120	120	21	19	mm	120	219	250
Frame#	Time	ThumbCMC			ThumbMCP			ThumbIP			ThumbTip			IndexMCP			IndexPIP			IndexTip			MiddleMCP			MiddlePIP			MiddleTip			RingMCP			RingPIP			RingTip			PinkyMCP			PinkyPIP			PinkyTip			BackHand1			BackHand2			BackHand3	
		X0	Y0	Z0	X1	Y1	Z1	X2	Y2	Z2	X3	Y3	Z3	X4	Y4	Z4	X5	Y5	Z5	X6	Y6	Z6	X7	Y7	Z7	X8	Y8	Z8	X9	Y9	Z9	X10	Y10	Z10	X11	Y11	Z11	X12	Y12	Z12	X13	Y13	Z13	X14	Y14	Z14	X15	Y15	Z15	X16	Y16	Z16	X17	Y17	Z17	X18	Y18	Z18	
218	1.81667	-214.173	-51.5393	21.1834	-200.015	-31.1937	-3.46405	-169.766	-33.1228	-16.6668	-145.795	-44.6181	-7.03374	-195.003	-64.362	-48.6037	-190.785	-59.5288	-72.7694	-187.523	-52.958	-99.2416	-173.251	-75.3525	-52.8057	-168.509	-69.4433	-75.9117	-161.224	-61.6159	-108.72	-155.871	-74.6888	-36.8156	-150.672	-71.6101	-62.5083	-142.903	-68.2152	-84.0895	-140.05	-73.6494	-15.4946	-134.605	-68.6491	-38.983	-125.603	-67.9284	-60.3724	-172.63	-92.6352	7.71764	-176.49	-100.799	34.9699	-204.18	-89.0196	14.4492	
219	1.825	-213.673	-51.3803	22.399	-200.497	-29.2983	-4.23986	-167.53	-32.9467	-18.9076	-147.526	-42.0285	-7.36087	-196.858	-63.8125	-48.5876	-192.212	-59.0879	-73.8254	-189.437	-50.5085	-102.467	-174.699	-74.0259	-50.4371	-168.003	-70.8531	-76.3205	-161.509	-63.3979	-107.684	-155.389	-74.0715	-41.2848	-152.038	-71.0134	-60.2337	-142.844	-69.8452	-87.0575	-143.068	-71.525	-18.106	-130.905	-69.7039	-35.5644	-125.475	-67.4026	-56.7182	-171.079	-90.4546	7.22864	-179.1	-100.381	33.6094	-202.64	-86.7341	11.627	
220	1.83333	-215.872	-50.7008	22.8479	-200.688	-30.0269	-4.48418	-170.111	-29.055	-19.094	-147.087	-44.84	-7.44221	-195.86	-63.2879	-49.073	-193.835	-56.612	-76.7534	-191.935	-50.6418	-99.0623	-178.132	-73.4642	-49.8814	-173.028	-70.0677	-78.6137	-165.635	-62.6799	-110.953	-155.903	-75.3485	-41.4879	-148.804	-72.6864	-60.388	-143.44	-69.5859	-85.0743	-138.943	-73.876	-21.5017	-132.017	-70.5902	-36.1221	-125.182	-67.6408	-59.5463	-168.529	-91.0465	6.50951	-179.748	-97.2067	32.0872	-205.414	-85.9371	10.5144	
221	1.84167	-217.065	-50.2476	22.8981	-199.301	-30.9441	-6.21957	-167.505	-33.3892	-20.0954	-144.63	-46.6268	-9.01822	-194.179	-63.761	-48.1018	-191.288	-57.1809	-73.6642	-186.572	-48.7191	-99.2087	-178.56	-74.5929	-51.7435	-169.513	-70.2857	-78.9868	-162.854	-62.1455	-111.051	-159.324	-74.6556	-40.1274	-150.198	-72.0386	-61.89	-141.809	-70.0513	-87.9736	-143.295	-72.8306	-21.9073	-132.289	-70.0056	-37.3843	-122.443	-68.9906	-58.7823	-171.739	-90.4933	5.48404	-178.404	-101.47	37.7707	-207.22	-85.9321	9.87455	
222	1.85	-215.141	-52.0101	22.5424	-198.612	-33.8158	-6.83513	-167.612	-36.895	-21.2993	-143.776	-50.8478	-8.43603	-194.174	-64.845	-47.2849	-188.458	-57.1878	-72.5499	-180.957	-48.7678	-96.0627	-176.404	-74.3868	-49.2164	-168.732	-67.8609	-79.7988	-158.891	-59.7357	-109.805	-159.024	-74.4826	-41.282	-149.96	-71.4399	-60.9077	-140.5	-67.9626	-85.15	-143.144	-73.0559	-16.4866	-131.95	-69.1091	-40.2023	-123.776	-67.3434	-61.0201	-169.481	-92.6247	6.84107	-179.584	-99.0123	36.009	-203.781	-87.5942	14.9482	
223	1.85833	-216.757	-53.0855	21.864	-201.979	-33.7892	-3.59654	-172.311	-38.3969	-17.0102	-145.509	-47.8016	-11.5773	-190.492	-65.4145	-48.0736	-180.378	-58.6049	-71.2223	-170.199	-48.9364	-94.8155	-169.714	-72.7012	-50.5911	-166.268	-65.2956	-76.662	-157.434	-55.7397	-108.506	-158.473	-72.7484	-39.4758	-148.818	-66.9862	-62.88	-142.423	-62.5701	-83.5111	-144.306	-71.8409	-21.987	-137.312	-65.8112	-40.2649	-127.407	-63.8386	-61.3698	-172.411	-93.6892	6.37599	-174.666	-102.094	34.5643	-202.149	-87.4952	14.1266	
224	1.86667	-214.691	-54.4963	21.5821	-199.959	-39.3416	-5.44229	-172.064	-34.8824	-21.3618	-146.086	-46.7775	-12.7265	-188.761	-65.4432	-49.2556	-177.116	-57.4278	-73.1779	-168.21	-46.3516	-95.1899	-167.905	-71.3753	-52.6559	-159.609	-63.5091	-78.2172	-154.904	-52.4788	-107.042	-155.649	-71.9214	-36.5132	-145.701	-66.5279	-62.4292	-141.255	-60.1335	-83.962	-141.454	-72.3815	-21.6496	-134.605	-65.7873	-39.2956	-130.06	-61.1713	-62.6003	-168.717	-94.4282	8.95368	-176.702	-102.737	36.4216	-204.741	-88.4998	11.1364	
225	1.875	-216.519	-54.4853	21.194	-202.772	-36.3187	-7.75237	-175.06	-37.8266	-18.0268	-145.123	-50.0211	-12.3427	-185.119	-65.5837	-50.9006	-177.86	-55.883	-74.7852	-163.82	-48.1544	-90.5821	-170.655	-71.8096	-49.6539	-157.947	-63.3982	-75.216	-151.983	-52.2732	-103.454	-152.428	-71.5937	-41.488	-149.393	-64.3164	-62.9686	-138.951	-58.4951	-83.1372	-144.471	-69.664	-22.4171	-136.424	-62.9034	-40.4729	-129.546	-59.6569	-62.9662	-169.237	-95.3324	8.3952	-176.611	-100.086	38.3382	-203.648	-88.3122	12.4623	
226	1.88333	-215.854	-54.6062	20.0588	-199.922	-39.0806	-5.55655	-169.543	-37.8144	-23.0579	-144.881	-50.9288	-11.4982	-186.61	-65.1936	-48.5759	-175.988	-56.9172	-73.5921	-165.185	-47.981	-92.2737	-168.787	-71.2472	-51.8241	-158.324	-62.4718	-78.4598	-150.838	-51.8223	-105.658	-155.396	-70.1962	-41.8367	-145.161	-64.2665	-61.6925	-138.909	-56.9404	-86.9557	-141.023	-70.6341	-23.454	-133.867	-62.8065	-41.2301	-132.827	-57.6625	-60.3707	-164.962	-94.2373	6.29925	-176.976	-100.152	34.665	-201.498	-89.8442	14.4859	
227	1.89167	-213.018	-55.5784	23.137	-200.677	-39.2251	-5.3822	-171.21	-38.8654	-18.7573	-146.845	-49.3053	-10.418	-186.999	-65.6873	-47.5502	-179.042	-58.3256	-72.1553	-165.5	-46.5517	-94.752	-169.623	-70.8055	-52.3932	-160.249	-62.6758	-79.3484	-151.078	-53.1523	-106.043	-150.902	-70.9056	-42.3822	-146.509	-64.0866	-63.6331	-136.847	-57.3479	-87.0799	-142.78	-69.961	-19.2545	-134.489	-63.9563	-37.5382	-127.704	-60.4751	-59.1508	-169.137	-94.6627	4.15775	-174.017	-99.2716	35.6624	-204.219	-90.1775	10.3355	
228	1.9	-214.496	-55.7735	23.0332	-202.098	-37.3669	-3.80159	-172.385	-37.1311	-17.6023	-144.141	-46.2366	-13.7756	-184.865	-66.1124	-49.7643	-178.76	-59.4785	-72.4184	-169.052	-48.8244	-97.7816	-168.09	-71.4056	-52.4035	-158.844	-63.2044	-77.1155	-149.74	-54.0755	-102.6	-150.368	-71.9635	-36.6488	-147.21	-64.5395	-62.3272	-139.486	-59.0089	-82.079	-139.354	-70.9763	-18.5946	-132.72	-64.6676	-42.2543	-130.66	-58.1921	-61.6223	-166.227	-94.2918	7.46137	-175.478	-100.55	35.4295	-203.797	-89.7117	13.6495	
229	1.90833	-212.649	-55.3129	23.0523	-201.846	-35.1979	-3.38953	-172.197	-35.961	-16.9975	-143.858	-48.1904	-11.0759	-191.871	-66.1951	-49.1986	-183.874	-59.744	-73.7148	-174.293	-51.8205	-95.2821	-171.235	-72.2328	-49.1992	-161.864	-64.5522	-79.026	-150.611	-56.6247	-102.045	-151.635	-73.3021	-39.6842	-143.992	-67.0295	-60.8903	-135.457	-61.2812	-86.2211	-139.181	-71.8692	-22.1586	-132.9	-67.6425	-36.0359	-124.685	-65.0942	-59.8684	-168.858	-92.4102	8.49919	-173.442	-100.907	37.3226	-199.469	-89.3993	11.446	
230	1.91667	-213.684	-52.9622	23.3769	-198.553	-36.4509	-5.01678	-170.093	-35.6952	-17.2157	-145.195	-47.9149	-9.07885	-192.367	-65.7206	-47.5816	-185.04	-59.3341	-75.1365	-176.351	-53.4537	-98.3288	-167.561	-74.7269	-48.8602	-164.021	-66.7554	-77.1172	-154.664	-57.5998	-107.88	-156.287	-73.2699	-39.5237	-144.868	-71.3215	-58.4828	-141.142	-65.2177	-83.7898	-137.646	-74.8611	-18.0384	-130.513	-70.1786	-40.2005	-121.225	-68.1082	-60.4651	-168.545	-93.9983	5.78948	-178.195	-98.1757	33.1646	-201.585	-88.8395	12.5736	
231	1.925	-211.932	-52.1615	21.1313	-199.483	-31.9314	-7.30215	-169.354	-34.0668	-18.0292	-144.751	-43.6058	-10.1279	-194.879	-63.7629	-50.3875	-190.193	-59.16	-74.3351	-178.266	-55.2224	-101.464	-174.225	-72.8997	-52.7713	-166.341	-66.887	-80.3165	-157.708	-60.6647	-109.411	-155.865	-74.9425	-40.303	-145.43	-72.8085	-59.9192	-140.696	-68.2666	-85.7371	-141.386	-74.4147	-16.3171	-130.843	-72.1275	-37.2237	-121.087	-73.0146	-55.4422	-171.138	-93.4736	6.11636	-177.867	-99.6654	33.7904	-202.901	-86.7703	12.2369	
232	1.93333	-213.021	-49.8987	20.8425	-198.518	-32.7152	-4.18873	-169.957	-30.9718	-17.5539	-147.369	-40.5959	-8.94161	-194.461	-63.4663	-51.1825	-193.414	-58.4465	-75.4304	-186.602	-54.2922	-98.867	-172.131	-74.7958	-52.8233	-169.241	-69.4418	-80.0811	-161.374	-64.158	-105.949	-152.972	-75.959	-41.1793	-150.001	-72.1658	-61.6869	-141.58	-70.2086	-87.8299	-141.128	-75.1224	-20.6085	-128.258	-73.6871	-38.2449	-119.961	-73.7818	-60.3748	-172.726	-91.0595	8.71468	-177.392	-98.0457	34.4794	-204.718	-85.7415	14.6485	
233	1.94167	-212.924	-49.4424	24.6776	-200.027	-30.4671	-3.51804	-170.688	-27.962	-17.5189	-144.286	-45.7706	-7.15669	-194.804	-62.3188	-48.6043	-192.038	-60.06	-76.5351	-184.288	-56.4678	-100.344	-173.997	-74.1257	-49.3357	-168.752	-72.2889	-75.9329	-159.712	-66.9592	-110.367	-157.456	-74.7508	-36.5948	-146.656	-74.5434	-60.1116	-142.423	-71.5435	-89.9724	-140.446	-75.0098	-18.2673	-129.921	-73.5173	-40.2162	-119.024	-74.3093	-56.3363	-167.619	-92.6915	7.75615	-177.025	-98.5024	34.5857	-201.965	-84.6157	9.59201	
234	1.95	-212.731	-49.1276	20.2595	-199.939	-28.7992	-3.4957	-169.147	-30.2363	-18.5983	-148.523	-43.1869	-6.11285	-193.714	-63.75	-51.0478	-189.983	-60.6901	-78.0168	-185.823	-56.5566	-101.346	-173.284	-75.5316	-52.8888	-168.062	-72.3721	-80.7011	-160.673	-67.4571	-108.73	-153.913	-75.7195	-42.0751	-148.269	-73.2796	-60.8763	-139.096	-71.7618	-88.4832	-140.927	-73.9147	-18.1869	-129.014	-74.878	-37.3831	-121.071	-76.8151	-57.9295	-169.765	-91.1526	5.70568	-179.406	-98.0698	32.5709	-202.902	-84.9898	11.0448	
235	1.95833	-213.816	-49.7831	24.737	-200.208	-30.2546	-6.0052	-170.233	-28.8251	-19.2641	-147.903	-45.7101	-6.38653	-190.219	-66.1958	-49.4001	-189.372	-63.0665	-73.3968	-183.143	-58.4902	-102.709	-169.901	-76.79	-52.9849	-168.926	-72.2098	-81.0462	-159.477	-67.8305	-108.551	-152.256	-76.3234	-40.3714	-147.479	-73.687	-62.8521	-138.96	-72.2288	-85.4295	-137.311	-76.1606	-18.4222	-129.631	-73.905	-38.939	-122.855	-75.2808	-55.4123	-168.092	-90.6509	8.65916	-175.445	-98.476	36.9435	-205.402	-84.7006	8.74886	
236	1.96667	-216.086	-48.7832	23.0982	-201.487	-29.9608	-6.64741	-170.222	-31.156	-21.3484	-146.473	-45.1386	-9.45393	-192.678	-66.3657	-51.9501	-186.428	-64.9255	-74.3878	-177.636	-62.2597	-102.122	-172.963	-75.9977	-48.25	-165.502	-73.3486	-80.5087	-159.922	-67.205	-107.222	-155.336	-76.0627	-37.2125	-144.893	-74.3682	-64.1503	-138.135	-71.2271	-87.4861	-137.446	-76.9068	-16.7826	-131.539	-74.3321	-40.3352	-125.676	-73.452	-59.8951	-172.136	-91.5788	9.1549	-175.919	-100.067	34.9799	-203.222	-85.383	11.4755	
237	1.975	-211.423	-53.7585	20.6073	-201.539	-35.4093	-8.61012	-173.681	-35.527	-18.6586	-147.842	-44.7129	-11.1913	-191.556	-68.2168	-52.133	-188.49	-65.2791	-73.6312	-176.976	-63.1084	-97.5691	-174.529	-76.7098	-52.1725	-169.534	-72.5655	-79.6449	-158.253	-66.502	-109.196	-154.587	-76.9711	-38.226	-148.854	-74.2876	-61.055	-142.905	-69.3691	-86.1137	-142.779	-74.5248	-20.7971	-133.077	-73.7755	-36.4958	-124.305	-70.8733	-61.9581	-167.946	-91.8909	8.9889	-177.162	-99.7703	32.7322	-201.659	-88.4019	12.9055	
238	1.98333	-216.96	-52.9644	20.8577	-206.46	-34.9277	-7.38273	-175.589	-33.5675	-24.9202	-151.314	-44.8244	-14.354	-193.844	-68.2063	-50.1542	-186.152	-65.8995	-78.4773	-179.159	-62.1022	-101.117	-173.653	-77.4338	-52.8311	-165.066	-73.6094	-79.7557	-160.051	-64.8069	-110.637	-156.714	-76.8143	-41.6138	-150.473	-74.415	-61.3403	-142.101	-69.4759	-86.9435	-140.344	-76.9869	-21.462	-134.544	-72.8811	-41.3346	-125.116	-70.5767	-61.0101	-172.195	-92.0999	8.78142	-175.278	-101.421	32.0368	-205.214	-86.1508	14.8838	
